<svg width="592" height="376" viewBox="0 0 592 376" fill="none" xmlns="http://www.w3.org/2000/svg">
<path d="M229.885 116.425C302.986 82.1334 378.162 37.2991 463.078 55.6479C489.41 61.3331 513.367 75.5609 529.564 96.2559C572.874 151.543 569.354 236.226 545.824 298.461C542.822 306.617 538.85 314.419 533.984 321.713C510.099 356.831 469.858 358.486 431.039 348.334C398.195 339.716 369.092 330.88 335.159 339.611C316.365 344.454 298.147 351.101 279.424 356.155C253.928 363.051 227.652 367.728 201.098 368.187C130.848 369.443 50.6198 335.309 44.3999 260.575C44.0026 255.73 43.9209 250.865 44.1552 246.009C45.5523 216.177 55.9005 186.3 84.5928 170.809C113.427 155.243 147.645 149.084 178.523 138.037C196.039 131.78 213.057 124.313 229.885 116.425Z" fill="#F2562D"/>
<path opacity="0.7" d="M229.885 116.425C302.986 82.1334 378.162 37.2991 463.078 55.6479C489.41 61.3331 513.367 75.5609 529.564 96.2559C572.874 151.543 569.354 236.226 545.824 298.461C542.822 306.617 538.85 314.419 533.984 321.713C510.099 356.831 469.858 358.486 431.039 348.334C398.195 339.716 369.092 330.88 335.159 339.611C316.365 344.454 298.147 351.101 279.424 356.155C253.928 363.051 227.652 367.728 201.098 368.187C130.848 369.443 50.6198 335.309 44.3999 260.575C44.0026 255.73 43.9209 250.865 44.1552 246.009C45.5523 216.177 55.9005 186.3 84.5928 170.809C113.427 155.243 147.645 149.084 178.523 138.037C196.039 131.78 213.057 124.313 229.885 116.425Z" fill="white"/>
<path d="M582.567 350.665H13.8369" stroke="#263238" stroke-miterlimit="10"/>
<path d="M396.095 281.812C398.527 282.827 404.47 282.699 404.47 282.699C404.47 282.699 403.199 278.992 403.081 278.766C401.779 276.172 397.658 271.878 394.304 272.307C393.748 272.394 393.218 272.591 392.748 272.886C392.278 273.181 391.878 273.567 391.574 274.019C391.271 274.471 391.07 274.978 390.985 275.508C390.901 276.038 390.934 276.58 391.083 277.097C391.644 279.308 394.027 280.955 396.095 281.812Z" fill="#263238"/>
<path d="M398.148 298.213C400.666 298.559 405.97 297.1 406.396 296.98C407.268 299.87 408.341 302.701 409.609 305.455C410.335 307.064 411.124 308.666 411.977 310.26C411.495 309.583 411.053 308.982 410.982 308.907C409.009 306.726 403.839 303.643 400.721 304.891C400.21 305.114 399.754 305.437 399.383 305.84C399.011 306.242 398.733 306.714 398.565 307.225C398.398 307.736 398.345 308.275 398.41 308.807C398.476 309.339 398.658 309.852 398.945 310.313C400.097 312.306 402.852 313.321 405.086 313.599C407.32 313.877 411.906 312.757 413.105 312.433C413.421 313.043 413.729 313.652 414.053 314.261C415.584 317.171 417.131 320.074 418.56 322.961C419.057 323.977 419.515 324.999 419.973 326.015C419.546 325.42 419.183 324.917 419.112 324.849C417.131 322.668 412.008 319.585 408.851 320.826C408.341 321.05 407.886 321.374 407.515 321.776C407.144 322.178 406.866 322.65 406.699 323.161C406.532 323.672 406.479 324.211 406.543 324.742C406.608 325.274 406.789 325.787 407.075 326.248C408.227 328.248 411.022 329.256 413.216 329.541C415.41 329.827 419.594 328.789 421.015 328.428C421.457 329.489 421.899 330.542 422.27 331.587C422.506 332.339 422.791 332.978 422.988 333.715C423.185 334.452 423.406 335.151 423.619 335.858C423.967 337.234 424.33 338.656 424.63 340.009C424.851 340.949 425.04 341.852 425.238 342.754C424.748 341.731 423.746 339.746 423.659 339.603C422.08 337.167 417.439 333.354 414.187 334.151C413.646 334.298 413.143 334.551 412.711 334.895C412.28 335.239 411.93 335.666 411.683 336.148C411.436 336.63 411.299 337.156 411.281 337.692C411.262 338.227 411.362 338.761 411.574 339.257C412.363 341.393 414.96 342.762 417.099 343.393C419.467 344.085 424.74 343.453 425.395 343.393C425.711 344.897 426.003 346.349 426.256 347.732C426.445 348.735 426.619 349.72 426.777 350.688H428.884C428.679 349.635 428.466 348.537 428.229 347.379C427.913 345.875 427.542 344.236 427.148 342.581C428.734 341.976 430.281 341.283 431.781 340.506C433.51 342.288 437.954 344.386 438.53 344.649C437.922 346.063 437.322 347.439 436.73 348.725C436.422 349.402 436.115 350.048 435.815 350.688H438.048L438.577 349.462C439.201 348.033 439.832 346.454 440.464 344.89C441.103 345.018 446.313 346.025 448.744 345.506C450.946 345.033 453.614 343.844 454.593 341.746C454.842 341.267 454.983 340.743 455.005 340.208C455.027 339.674 454.931 339.141 454.722 338.644C454.514 338.147 454.198 337.698 453.794 337.325C453.391 336.953 452.91 336.666 452.383 336.482C449.178 335.452 444.276 338.926 442.484 341.243C442.374 341.378 441.403 342.987 440.803 344.01C441.064 343.356 441.316 342.724 441.593 342.047C442.106 340.724 442.579 339.378 443.084 337.941C443.305 337.234 443.534 336.52 443.755 335.806C443.976 335.091 444.158 334.302 444.363 333.55C444.797 331.797 445.152 330.015 445.46 328.203C446.684 328.624 451.057 330.075 453.354 329.925C455.651 329.775 458.437 328.985 459.739 327.075C460.062 326.636 460.283 326.137 460.39 325.611C460.497 325.085 460.486 324.543 460.359 324.021C460.232 323.499 459.991 323.008 459.651 322.581C459.312 322.154 458.882 321.799 458.39 321.54C455.382 320.036 449.991 322.788 447.844 324.819C447.71 324.947 446.344 326.571 445.618 327.473C445.792 326.383 445.981 325.3 446.123 324.187C446.542 320.991 446.857 317.743 447.189 314.501C447.291 313.509 447.402 312.524 447.513 311.531C447.947 311.689 453.101 313.516 455.635 313.343C457.884 313.193 460.71 312.411 462.013 310.501C462.335 310.062 462.558 309.564 462.665 309.038C462.772 308.512 462.762 307.971 462.636 307.449C462.509 306.927 462.269 306.436 461.93 306.008C461.592 305.581 461.163 305.225 460.671 304.966C457.663 303.462 452.264 306.214 450.125 308.245C449.959 308.395 448.002 310.734 447.536 311.351C447.773 309.177 448.033 307.004 448.389 304.876C448.842 301.998 449.494 299.152 450.338 296.356C450.536 296.431 455.911 298.364 458.5 298.191C460.758 298.04 463.583 297.251 464.886 295.34C465.208 294.901 465.43 294.402 465.537 293.876C465.643 293.35 465.633 292.809 465.506 292.287C465.378 291.765 465.137 291.274 464.798 290.847C464.459 290.419 464.029 290.065 463.536 289.806C460.529 288.302 455.137 291.054 452.991 293.084C452.825 293.25 450.717 295.762 450.37 296.243C450.417 296.085 450.449 295.912 450.504 295.747C451.432 292.967 452.618 290.271 454.048 287.693C454.838 286.256 455.627 284.925 456.464 283.647C457.427 284.106 461.839 286.144 464.199 286.234C466.559 286.324 469.353 285.835 470.869 284.076C471.24 283.673 471.517 283.2 471.684 282.689C471.85 282.177 471.902 281.638 471.836 281.106C471.77 280.575 471.587 280.062 471.299 279.602C471.012 279.142 470.626 278.744 470.166 278.436C467.348 276.646 461.673 278.796 459.305 280.586C459.179 280.684 457.987 281.812 457.134 282.654C457.513 282.075 457.924 281.481 458.279 280.94C459.692 278.909 461.121 277.135 462.399 275.57C463.133 274.683 463.82 273.901 464.467 273.172C465.651 273.172 470.443 273.014 472.534 272.074C474.626 271.134 476.915 269.457 477.412 267.231C477.547 266.711 477.566 266.17 477.467 265.642C477.368 265.115 477.153 264.614 476.838 264.171C476.522 263.727 476.112 263.352 475.635 263.07C475.157 262.787 474.623 262.604 474.066 262.531C470.695 262.185 466.693 266.576 465.47 269.208C465.359 269.434 464.128 273.172 464.191 273.172H464.128C463.489 273.863 462.818 274.608 462.099 275.428C460.781 276.932 459.305 278.721 457.837 280.737C456.228 282.885 454.755 285.122 453.425 287.437C451.92 290.025 450.66 292.735 449.659 295.536C449.662 295.571 449.662 295.606 449.659 295.641C449.659 294.694 449.659 292.047 449.604 291.881C449.217 289.024 446.707 283.722 443.376 283.136C442.821 283.053 442.254 283.082 441.711 283.222C441.169 283.362 440.663 283.609 440.227 283.947C439.792 284.286 439.436 284.708 439.183 285.186C438.93 285.664 438.785 286.188 438.759 286.723C438.561 288.979 440.29 291.235 441.971 292.701C443.874 294.31 449.146 295.882 449.565 296.002C448.618 298.872 447.875 301.799 447.339 304.763C447.015 306.493 446.747 308.237 446.494 309.989C446.494 309.177 446.494 308.44 446.494 308.343C446.107 305.485 443.59 300.183 440.259 299.597C439.703 299.515 439.135 299.545 438.593 299.686C438.05 299.827 437.545 300.075 437.109 300.414C436.674 300.753 436.318 301.175 436.065 301.654C435.812 302.132 435.668 302.656 435.641 303.191C435.444 305.447 437.172 307.703 438.854 309.162C440.535 310.621 445.034 312.035 446.218 312.396C446.131 313.073 446.036 313.742 445.95 314.419C445.547 317.652 445.16 320.886 444.671 324.044C444.497 325.157 444.292 326.248 444.087 327.338C444.087 326.586 444.087 326.007 444.039 325.909C443.653 323.052 441.143 317.75 437.812 317.164C437.256 317.081 436.688 317.11 436.145 317.25C435.601 317.391 435.095 317.639 434.66 317.978C434.224 318.317 433.868 318.74 433.616 319.219C433.363 319.698 433.219 320.223 433.194 320.758C432.997 323.014 434.725 325.27 436.407 326.729C438.088 328.188 442.145 329.466 443.558 329.902C443.313 331.008 443.061 332.158 442.769 333.189C442.556 333.941 442.398 334.625 442.137 335.347C441.877 336.069 441.656 336.761 441.419 337.46C440.914 338.799 440.401 340.175 439.84 341.461C439.485 342.356 439.122 343.205 438.759 344.063C438.94 342.957 439.248 340.784 439.256 340.603C439.218 338.07 438.5 335.587 437.172 333.392C437.181 333.11 437.163 332.828 437.117 332.549C437.047 332.017 436.86 331.505 436.568 331.047C436.277 330.588 435.887 330.193 435.425 329.887C434.962 329.582 434.438 329.372 433.885 329.272C433.332 329.173 432.763 329.185 432.215 329.308C428.94 330.136 426.871 335.61 426.69 338.483C426.69 338.656 426.8 340.506 426.895 341.671C426.729 340.994 426.572 340.333 426.398 339.641C426.051 338.265 425.672 336.896 425.261 335.422L424.582 333.294C424.369 332.542 424.054 331.843 423.793 331.113C423.146 329.429 422.404 327.744 421.615 326.075C422.885 325.781 427.361 324.699 429.161 323.383C430.96 322.067 432.855 319.931 432.839 317.652C432.854 317.117 432.75 316.584 432.535 316.089C432.32 315.594 431.998 315.148 431.591 314.779C431.183 314.41 430.698 314.127 430.168 313.949C429.638 313.77 429.074 313.7 428.513 313.742C425.143 314.095 422.199 319.201 421.615 322.014C421.575 322.187 421.378 324.27 421.291 325.398C420.809 324.398 420.336 323.39 419.815 322.39C418.307 319.51 416.657 316.63 415.079 313.757C414.582 312.87 414.108 311.99 413.626 311.11C414.076 311.005 419.436 309.824 421.449 308.35C423.241 307.042 425.143 304.898 425.127 302.62C425.141 302.084 425.037 301.552 424.821 301.057C424.605 300.562 424.282 300.117 423.873 299.749C423.464 299.38 422.979 299.098 422.448 298.921C421.918 298.743 421.354 298.674 420.794 298.717C417.431 299.063 414.479 304.169 413.903 306.989C413.855 307.207 413.571 310.185 413.54 310.944C412.482 309.004 411.44 307.057 410.501 305.094C409.215 302.455 408.11 299.74 407.193 296.965C407.406 296.92 413.003 295.709 415.087 294.197C416.878 292.889 418.781 290.746 418.765 288.475C418.78 287.939 418.677 287.407 418.462 286.912C418.247 286.417 417.925 285.97 417.517 285.601C417.109 285.233 416.624 284.95 416.094 284.771C415.564 284.592 415 284.522 414.439 284.564C411.069 284.91 408.125 290.024 407.541 292.836C407.493 293.054 407.193 296.258 407.178 296.844C407.13 296.687 407.051 296.521 407.004 296.363C406.166 293.555 405.593 290.681 405.291 287.775C405.102 286.174 405.015 284.632 404.967 283.136C406.033 283.008 410.903 282.384 412.916 281.233C414.929 280.082 416.981 278.187 417.226 275.924C417.304 275.393 417.263 274.853 417.107 274.338C416.951 273.824 416.683 273.346 416.321 272.937C415.958 272.527 415.509 272.195 415.002 271.962C414.496 271.729 413.944 271.601 413.382 271.585C409.996 271.585 406.499 276.352 405.567 279.105C405.52 279.255 405.181 280.819 404.952 281.97C404.952 281.293 404.952 280.594 404.952 279.94C404.952 277.503 405.117 275.27 405.283 273.292C405.386 272.171 405.496 271.156 405.615 270.209C406.593 269.569 410.509 266.93 411.716 265.05C412.924 263.17 413.847 260.538 412.971 258.447C412.784 257.941 412.486 257.478 412.097 257.089C411.708 256.7 411.238 256.393 410.716 256.189C410.194 255.986 409.633 255.889 409.07 255.906C408.506 255.924 407.953 256.054 407.446 256.289C404.431 257.793 403.641 263.538 404.139 266.373C404.186 266.622 405.323 270.389 405.37 270.359L405.433 270.314C405.299 271.224 405.165 272.201 405.046 273.269C404.841 275.247 404.628 277.488 404.565 279.932C404.473 282.57 404.539 285.212 404.762 287.843C405.004 290.788 405.519 293.707 406.301 296.566C406.311 296.602 406.324 296.638 406.341 296.672C405.804 295.874 404.233 293.664 404.099 293.536C402.118 291.362 396.956 288.272 393.838 289.52C393.327 289.743 392.871 290.067 392.5 290.469C392.128 290.871 391.85 291.343 391.682 291.854C391.515 292.365 391.462 292.905 391.527 293.436C391.593 293.968 391.775 294.481 392.062 294.942C393.159 296.912 395.914 297.905 398.148 298.213Z" fill="#263238"/>
<path d="M456.235 283.06C456.282 283.06 457.316 279.3 457.348 279.052C457.766 276.195 456.811 270.449 453.764 269.051C453.251 268.831 452.695 268.717 452.132 268.716C451.569 268.714 451.013 268.826 450.498 269.043C449.984 269.26 449.523 269.578 449.146 269.975C448.769 270.373 448.484 270.842 448.31 271.352C447.52 273.487 448.531 276.112 449.754 277.917C451.167 280.037 456.235 283.053 456.235 283.06Z" fill="#263238"/>
<g opacity="0.3">
<path d="M376.922 70.5282L369.013 78.063L376.922 85.5978L384.831 78.063L376.922 70.5282Z" stroke="black" stroke-miterlimit="10"/>
<path d="M24.2376 155.502L19.0469 160.447L24.2376 165.392L29.4283 160.447L24.2376 155.502Z" stroke="black" stroke-miterlimit="10"/>
<path d="M133.009 329.54L127.819 334.485L133.009 339.43L138.2 334.485L133.009 329.54Z" stroke="black" stroke-miterlimit="10"/>
<path d="M567.27 260.036L558.558 268.337L567.27 276.637L575.983 268.337L567.27 260.036Z" stroke="black" stroke-miterlimit="10"/>
<path d="M374.742 324.233L368.663 330.024L374.741 335.815L380.82 330.024L374.742 324.233Z" stroke="black" stroke-miterlimit="10"/>
<path d="M163.532 34.683L152.397 45.2913L163.532 55.8996L174.667 45.2913L163.532 34.683Z" stroke="black" stroke-miterlimit="10"/>
<path d="M489.26 46.8555L479.118 56.5173L489.26 66.1791L499.401 56.5173L489.26 46.8555Z" stroke="black" stroke-miterlimit="10"/>
</g>
<g opacity="0.3">
<path d="M554.222 105.475H569.07V52.8279H554.222V105.475Z" stroke="black" stroke-miterlimit="10"/>
<path d="M534.434 105.483H549.281V64.6194H534.434V105.483Z" stroke="black" stroke-miterlimit="10"/>
<path d="M514.638 105.483H529.485V74.0494H514.638V105.483Z" stroke="black" stroke-miterlimit="10"/>
<path d="M494.849 105.483H509.696V81.9078H494.849V105.483Z" stroke="black" stroke-miterlimit="10"/>
<path d="M501.795 78.426L500.343 76.6137L515.522 65.6119L523.052 67.9957L535.476 55.2493L542.785 57.37L556.038 42.894L561.65 46.3607L567.483 42.4277L568.865 44.2927L561.713 49.113L556.48 45.8869L543.574 59.9794L536.21 57.8437L523.754 70.6277L515.964 68.1537L501.795 78.426Z" fill="black"/>
<path d="M570.072 48.6243L574.761 38.9235L563.592 39.9011L570.072 48.6243Z" fill="black"/>
</g>
<g opacity="0.3">
<path d="M62.9966 46.9474H89.163" stroke="black" stroke-miterlimit="10"/>
<path d="M77.5205 79.148V46.9474" stroke="black" stroke-miterlimit="10"/>
<path d="M43.437 56.8888V72.4552" stroke="black" stroke-miterlimit="10"/>
<path d="M63.1784 93.0225H41.6848V110.176" stroke="black" stroke-miterlimit="10"/>
<path d="M51.9382 116.605H57.8424" stroke="black" stroke-miterlimit="10"/>
<path d="M63.2966 38.1791H34.407V56.9264H63.2966V38.1791Z" stroke="black" stroke-miterlimit="10"/>
<path d="M117.926 38.1791H89.0369V56.9264H117.926V38.1791Z" stroke="black" stroke-miterlimit="10"/>
<path d="M57.7082 122.185H76.218V110.175H57.7082V122.185Z" stroke="black" stroke-miterlimit="10"/>
<path d="M52.7037 72.4778H34.1938V84.4872H52.7037V72.4778Z" stroke="black" stroke-miterlimit="10"/>
<path d="M33.4284 122.185H51.9382V110.175H33.4284V122.185Z" stroke="black" stroke-miterlimit="10"/>
<path d="M77.5236 79.1471L62.9617 93.0203L77.5236 106.893L92.0856 93.0203L77.5236 79.1471Z" stroke="black" stroke-miterlimit="10"/>
</g>
<path opacity="0.3" d="M552.794 250.416L547.379 249.22L547.829 244.114C545.337 243.095 543.099 241.585 541.262 239.685L536.328 241.76L533.384 237.248L537.489 233.947C536.491 231.543 536.031 228.966 536.139 226.382L531.103 224.525L532.358 219.366L537.718 219.802C538.786 217.427 540.37 215.295 542.367 213.545L540.188 208.838L544.924 206.033L548.389 209.951C550.911 208.993 553.618 208.555 556.33 208.665L558.28 203.867L563.695 205.055L563.237 210.161C565.729 211.184 567.966 212.696 569.804 214.598L574.745 212.523L577.689 217.035L573.553 220.336C574.559 222.739 575.019 225.317 574.903 227.901L579.939 229.751L578.692 234.917L573.332 234.481C572.257 236.854 570.67 238.986 568.675 240.738L570.854 245.438L566.118 248.25L562.676 244.4C560.153 245.351 557.448 245.789 554.736 245.686L552.794 250.416Z" stroke="black" stroke-miterlimit="10"/>
<path opacity="0.3" d="M555.557 240.057C562.998 240.03 569.007 234.261 568.979 227.172C568.95 220.082 562.895 214.357 555.453 214.384C548.012 214.412 542.003 220.181 542.031 227.27C542.06 234.36 548.115 240.085 555.557 240.057Z" stroke="black" stroke-miterlimit="10"/>
<g opacity="0.3">
<path d="M110.167 331.948L105.139 336.738L99.6141 332.805C96.7665 334.674 93.5401 335.955 90.1421 336.565L89.1949 343.1H82.0909L81.1121 336.61C77.6991 336.022 74.4551 334.754 71.5927 332.888L66.0674 336.828L61.0393 332.038L65.1675 326.774C63.1973 324.066 61.8522 320.99 61.2209 317.75L54.3853 316.818V310.05L61.1893 309.125C61.8223 305.869 63.167 302.776 65.136 300.048L60.992 294.784L66.02 289.994L71.5454 293.927C74.3929 292.058 77.6194 290.777 81.0174 290.167L81.9961 283.654H89.1001L90.071 290.144C93.4865 290.732 96.7331 292 99.5983 293.867L105.124 289.926L110.152 294.716L106.031 299.98C107.994 302.692 109.339 305.767 109.978 309.004L116.806 309.929V316.697L110.002 317.622C109.372 320.879 108.027 323.972 106.055 326.699L110.167 331.948ZM97.7197 301.748C95.3086 299.451 92.2369 297.887 88.8929 297.254C85.549 296.62 82.083 296.946 78.9332 298.189C75.7834 299.432 73.0913 301.537 71.1972 304.238C69.3031 306.939 68.2922 310.114 68.2922 313.362C68.2922 316.61 69.3031 319.786 71.1972 322.486C73.0913 325.187 75.7834 327.292 78.9332 328.535C82.083 329.778 85.549 330.104 88.8929 329.471C92.2369 328.837 95.3086 327.273 97.7197 324.977C100.952 321.896 102.767 317.718 102.767 313.362C102.767 309.006 100.952 304.829 97.7197 301.748Z" stroke="black" stroke-miterlimit="10"/>
<path d="M73.6686 287.963L69.3667 292.054L64.6307 288.693C62.1919 290.304 59.4245 291.408 56.5085 291.934L55.6718 297.499H49.6176L48.8282 291.949C45.894 291.453 43.1038 290.369 40.6429 288.768L35.9069 292.144L31.6208 288.016L35.1491 283.504C33.4588 281.181 32.3022 278.544 31.755 275.766L25.906 274.969V269.216L31.7313 268.464C32.2608 265.681 33.4013 263.037 35.0781 260.703L31.534 256.191L35.8358 252.093L40.5718 255.454C43.011 253.845 45.7785 252.744 48.6941 252.221L49.5308 246.656H55.6165L56.4058 252.206C59.3251 252.711 62.1003 253.794 64.5518 255.387L69.2878 252.018L73.5896 256.109L70.0613 260.621C71.7503 262.947 72.9067 265.586 73.4554 268.366L79.2965 269.163V274.954L73.4791 275.743C72.9492 278.526 71.8087 281.17 70.1324 283.504L73.6686 287.963ZM63.0205 262.14C60.9592 260.177 58.3333 258.84 55.4748 258.299C52.6164 257.758 49.6537 258.037 46.9613 259.099C44.2689 260.162 41.9678 261.962 40.3488 264.27C38.7298 266.579 37.8657 269.293 37.8657 272.07C37.8657 274.846 38.7298 277.561 40.3488 279.869C41.9678 282.178 44.2689 283.977 46.9613 285.04C49.6537 286.103 52.6164 286.382 55.4748 285.84C58.3333 285.299 60.9592 283.963 63.0205 282C64.3897 280.696 65.4759 279.148 66.2169 277.444C66.958 275.74 67.3394 273.914 67.3394 272.07C67.3394 270.226 66.958 268.399 66.2169 266.695C65.4759 264.992 64.3897 263.443 63.0205 262.14Z" stroke="black" stroke-miterlimit="10"/>
</g>
<path d="M338.719 346.153H254.268L266.937 301.74H326.05L338.719 346.153Z" fill="#7A7A7A" stroke="#263238" stroke-miterlimit="10"/>
<path d="M332.98 326.037L326.05 301.74H266.937L260.006 326.037H332.98Z" fill="#263238" stroke="#263238" stroke-linecap="round" stroke-linejoin="round"/>
<path d="M360.678 346.153H232.309V350.658H360.678V346.153Z" fill="#7A7A7A" stroke="#263238" stroke-miterlimit="10"/>
<path d="M479.054 85.5851H113.925V306.402H479.054V85.5851Z" fill="#7A7A7A" stroke="#263238" stroke-miterlimit="10"/>
<path d="M224.968 297.988H125.63V94H467.356V297.988H233.54" fill="white"/>
<path d="M224.968 297.988H125.63V94H467.356V297.988H233.54" stroke="#263238" stroke-miterlimit="10"/>
<path d="M287.973 275.367C287.407 275.498 286.82 275.522 286.245 275.437C285.67 275.352 285.118 275.16 284.621 274.871C284.124 274.583 283.691 274.204 283.348 273.756C283.005 273.308 282.758 272.8 282.621 272.262L279.787 261.17C279.649 260.631 279.625 260.072 279.714 259.524C279.803 258.976 280.005 258.45 280.308 257.976C280.611 257.503 281.008 257.091 281.478 256.764C281.948 256.437 282.481 256.201 283.047 256.071C284.188 255.806 285.393 255.983 286.396 256.564C287.4 257.145 288.12 258.082 288.399 259.169L291.264 270.269C291.401 270.809 291.425 271.371 291.334 271.92C291.242 272.47 291.038 272.997 290.732 273.47C290.426 273.944 290.025 274.356 289.551 274.681C289.078 275.007 288.541 275.24 287.973 275.367Z" fill="white" stroke="#263238" stroke-linecap="round" stroke-linejoin="round"/>
<path d="M283.473 288.347C283.089 288.45 282.686 288.468 282.293 288.4C281.901 288.333 281.53 288.181 281.208 287.956C280.886 287.731 280.622 287.44 280.436 287.104C280.25 286.768 280.147 286.396 280.135 286.016L278.958 272.059C278.908 271.219 279.161 270.388 279.675 269.704C280.189 269.02 280.933 268.524 281.784 268.299C282.168 268.199 282.57 268.182 282.961 268.251C283.352 268.32 283.721 268.473 284.041 268.697C284.362 268.921 284.625 269.211 284.811 269.546C284.997 269.881 285.101 270.251 285.115 270.63L286.291 284.587C286.344 285.426 286.092 286.257 285.58 286.941C285.067 287.625 284.323 288.121 283.473 288.347Z" fill="white" stroke="#263238" stroke-linecap="round" stroke-linejoin="round"/>
<path d="M314.786 272.908L299.947 269.968C294.736 269.863 289.532 270.404 284.468 271.577L274.522 273.886C273.467 274.131 272.353 273.967 271.425 273.429C270.497 272.892 269.831 272.026 269.573 271.021L267.489 262.847C267.362 262.349 267.339 261.833 267.421 261.327C267.504 260.822 267.69 260.336 267.969 259.899C268.248 259.462 268.615 259.081 269.049 258.779C269.483 258.477 269.975 258.26 270.497 258.139L278.54 256.274C284.641 254.86 290.471 252.543 295.818 249.408L306.324 239.918L314.786 272.908Z" fill="white" stroke="#263238" stroke-linecap="round" stroke-linejoin="round"/>
<path d="M284.16 254.71C282.329 255.319 280.474 255.853 278.587 256.289L270.544 258.154C270.022 258.275 269.53 258.492 269.096 258.794C268.663 259.096 268.296 259.477 268.016 259.914C267.737 260.351 267.551 260.837 267.469 261.342C267.386 261.848 267.409 262.364 267.537 262.862L269.62 271.036C269.878 272.041 270.545 272.907 271.473 273.444C272.401 273.982 273.515 274.146 274.57 273.901L284.515 271.592C285.762 271.306 287.017 271.051 288.28 270.84L284.16 254.71Z" fill="#263238" stroke="#263238" stroke-linecap="round" stroke-linejoin="round"/>
<path d="M316.46 277.037C315.531 277.252 314.551 277.108 313.734 276.636C312.917 276.163 312.33 275.402 312.103 274.518L303.586 241.166C303.473 240.728 303.451 240.273 303.523 239.828C303.595 239.382 303.758 238.954 304.004 238.568C304.249 238.183 304.572 237.847 304.954 237.58C305.336 237.314 305.77 237.122 306.23 237.015C307.159 236.802 308.139 236.948 308.956 237.422C309.772 237.895 310.359 238.658 310.587 239.542L319.104 272.893C319.217 273.331 319.238 273.785 319.166 274.231C319.094 274.676 318.931 275.103 318.685 275.488C318.44 275.873 318.117 276.208 317.735 276.474C317.353 276.74 316.919 276.931 316.46 277.037Z" fill="#F2562D" stroke="#263238" stroke-linecap="round" stroke-linejoin="round"/>
<path d="M322.277 242.715L318.804 247.934" stroke="#263238" stroke-width="2" stroke-linecap="round" stroke-linejoin="round"/>
<path d="M327.873 264.614L322.269 261.5" stroke="#263238" stroke-width="2" stroke-linecap="round" stroke-linejoin="round"/>
<path d="M321.756 254.778L328.56 253.198" stroke="#263238" stroke-width="2" stroke-linecap="round" stroke-linejoin="round"/>
<path d="M286.212 282.97L288.58 284.91C288.864 285.138 289.064 285.446 289.149 285.79C289.204 286.004 289.214 286.227 289.179 286.445C289.144 286.663 289.064 286.873 288.944 287.061C288.824 287.25 288.665 287.414 288.478 287.544C288.291 287.675 288.079 287.768 287.854 287.82L280.332 289.565L279.858 283.015L286.212 282.97Z" fill="#263238" stroke="#263238" stroke-linecap="round" stroke-linejoin="round"/>
<path d="M274.064 263.305C274.018 263.115 273.913 262.941 273.763 262.808C273.613 262.674 273.424 262.585 273.222 262.553C273.019 262.52 272.811 262.546 272.623 262.626C272.436 262.706 272.277 262.838 272.168 263.003C272.059 263.169 272.003 263.362 272.008 263.558C272.014 263.753 272.08 263.943 272.198 264.103C272.316 264.263 272.482 264.387 272.673 264.457C272.865 264.528 273.074 264.543 273.275 264.501C273.41 264.473 273.537 264.419 273.65 264.343C273.763 264.268 273.859 264.171 273.932 264.06C274.005 263.949 274.055 263.825 274.078 263.695C274.1 263.566 274.096 263.433 274.064 263.305Z" fill="#F2562D"/>
<path d="M193.742 106.897H130.856V259.876H193.742V106.897Z" fill="#263238"/>
<path d="M135.647 227.104V139.699H158.861C162.585 139.675 166.302 139.999 169.959 140.669C173.168 141.244 176.226 142.417 178.958 144.121C181.597 145.818 183.678 148.193 184.957 150.972C186.356 153.884 187.056 157.677 187.056 162.349C187.141 165.426 186.605 168.489 185.478 171.373C184.55 173.686 182.985 175.718 180.947 177.254C178.809 178.76 176.325 179.758 173.701 180.164C176.947 180.551 180.03 181.741 182.644 183.616C185.105 185.472 186.986 187.935 188.082 190.737C189.369 194.161 189.982 197.781 189.89 201.416C189.971 205.292 189.379 209.154 188.138 212.846C187.107 215.859 185.341 218.596 182.983 220.832C180.602 222.981 177.738 224.583 174.608 225.517C170.869 226.628 166.969 227.163 163.053 227.104H135.647ZM154.33 175.005H158.972C162.216 175.005 164.671 174.562 166.336 173.659C167.994 172.764 169.229 171.297 169.786 169.561C170.481 167.368 170.806 165.083 170.749 162.793C170.85 160.576 170.364 158.37 169.336 156.378C168.384 154.761 166.859 153.518 165.034 152.874C162.688 152.087 160.21 151.72 157.725 151.791H154.33V175.005ZM154.33 214.598H159.54C164.223 214.598 167.449 213.483 169.217 211.252C170.985 209.021 171.872 205.677 171.877 201.22C171.987 198.414 171.567 195.613 170.638 192.948C169.913 191.03 168.483 189.427 166.613 188.436C164.307 187.371 161.76 186.873 159.201 186.985H154.33V214.598Z" fill="#F2562D" stroke="#263238" stroke-miterlimit="10"/>
<path d="M261.048 106.897H198.162V259.876H261.048V106.897Z" fill="white" stroke="#263238" stroke-linecap="round" stroke-linejoin="round"/>
<path d="M204.374 227.104V139.699H228.117C233.497 139.592 238.862 140.264 244.03 141.692C248.187 142.843 251.789 145.344 254.213 148.761C256.597 152.14 257.786 156.812 257.781 162.778C257.824 165.985 257.501 169.188 256.818 172.328C256.251 174.944 255.092 177.41 253.423 179.555C251.624 181.729 249.263 183.421 246.572 184.466L259.288 227.104H240.155L229.625 187.519H223.058V227.104H204.374ZM223.058 176.953H228.488C231.512 176.953 233.887 176.479 235.592 175.547C237.332 174.61 238.643 173.09 239.271 171.283C240.048 169.005 240.411 166.617 240.344 164.222C240.344 160.211 239.571 157.138 238.024 155.002C236.476 152.867 233.582 151.804 229.341 151.814H223.026L223.058 176.953Z" fill="#263238"/>
<path d="M328.363 53.2867H265.477V206.266H328.363V53.2867Z" fill="#F2562D" stroke="#263238" stroke-miterlimit="10"/>
<path d="M269.163 173.464L286.923 86.089H307.643L325.3 173.464H307.982L304.683 154.258H290.206L286.694 173.464H269.163ZM291.919 143.384H302.899L297.373 108.108L291.919 143.384Z" fill="white" stroke="#263238" stroke-linecap="round" stroke-linejoin="round"/>
<path d="M395.669 106.897H332.783V259.876H395.669V106.897Z" fill="#263238"/>
<path d="M339.413 227.104V139.699H352.437L372.818 185.218V139.699H388.218V227.104H375.723L355.342 178.781V227.104H339.413Z" fill="white" stroke="#263238" stroke-linecap="round" stroke-linejoin="round"/>
<path d="M486.829 106.897H423.943V259.876H486.829V106.897Z" fill="#F2562D" stroke="#263238" stroke-miterlimit="10"/>
<path d="M429.682 227.104V139.699H452.099C459.876 139.699 465.928 140.652 470.253 142.557C474.424 144.3 477.729 147.508 479.481 151.513C481.286 155.574 482.191 160.768 482.196 167.094V198.919C482.196 205.386 481.291 210.708 479.481 214.884C477.779 218.938 474.53 222.229 470.388 224.096C466.125 226.071 460.182 227.059 452.557 227.059L429.682 227.104ZM448.341 214.666H452.288C455.761 214.666 458.234 214.145 459.708 213.102C461.236 211.962 462.231 210.295 462.478 208.462C462.894 205.948 463.085 203.404 463.047 200.859V164.831C463.109 162.385 462.862 159.941 462.313 157.552C462.127 156.725 461.771 155.942 461.266 155.248C460.76 154.553 460.116 153.961 459.368 153.506C457.89 152.639 455.493 152.207 452.178 152.212H448.341V214.666Z" fill="#263238"/>
<path d="M491.328 190.294C491.328 190.294 490.468 185.361 490.144 184.127C489.884 183.15 487.776 181.525 486.94 180.894V183.811L487.879 185.255L486.94 187.406V194.347C487.263 194.746 487.595 195.099 487.879 195.43C488.635 196.429 489.216 197.539 489.6 198.716L492.512 193.069L491.328 190.294Z" fill="#C2C2C2" stroke="#263238" stroke-miterlimit="10"/>
<path d="M490.176 190.294L488.234 186.797C488.234 186.797 486.94 184.947 486.506 184.233C486.071 183.518 485.322 181.661 484.674 182.691C484.377 183.142 484.22 183.663 484.22 184.195C484.22 184.727 484.377 185.248 484.674 185.699C485.211 186.519 486.616 188.271 486.616 188.271C486.616 188.271 485.535 191.971 486.293 192.888C487.05 193.806 489.529 194.64 489.529 194.64" fill="#C2C2C2"/>
<path d="M490.176 190.294L488.234 186.797C488.234 186.797 486.94 184.947 486.506 184.233C486.071 183.518 485.322 181.661 484.674 182.691C484.377 183.142 484.22 183.663 484.22 184.195C484.22 184.727 484.377 185.248 484.674 185.699C485.211 186.519 486.616 188.271 486.616 188.271C486.616 188.271 485.535 191.971 486.293 192.888C487.05 193.806 489.529 194.64 489.529 194.64" stroke="#263238" stroke-miterlimit="10"/>
<path d="M492.512 193.068L499.79 207.326L495.07 223.359L489.6 198.716L492.512 193.068Z" fill="white" stroke="#263238" stroke-miterlimit="10"/>
<path d="M514.527 175.449C514.527 175.449 514.724 180.555 515.316 184.022C515.908 187.489 516.106 188.948 516.106 188.948L505.576 192.783C505.576 192.783 506.531 185.849 505.189 182.932C504.432 181.368 503.917 179.71 503.658 178.006C503.658 178.006 507.107 169.975 510.762 169.426C514.416 168.877 514.527 175.449 514.527 175.449Z" fill="#C2C2C2" stroke="#263238" stroke-miterlimit="10"/>
<path d="M500.169 160.665C500.169 160.665 498.251 159.025 500.737 153.551C503.224 148.076 515.293 148.445 521.039 153.37C526.785 158.296 528.703 167.057 523.723 172.712C518.742 178.367 512.806 179.096 508.978 176.908C505.15 174.72 504.763 170.524 504.763 168.877C504.763 167.23 506.105 163.222 504.187 162.109C502.936 161.428 501.58 160.94 500.169 160.665Z" fill="#263238" stroke="#263238" stroke-miterlimit="10"/>
<path d="M500.737 159.424C500.737 159.424 509.744 163.432 509.744 164.899C509.744 166.365 505.908 166.899 507.06 168.726C507.6 169.642 508.243 170.5 508.978 171.283C508.978 171.283 507.447 173.84 508.781 174.201C510.115 174.562 510.699 174.569 512.041 172.742C513.382 170.915 514.724 170.005 515.103 173.103C515.482 176.201 513.959 176.758 512.806 176.938C511.915 177.039 511.014 177.039 510.123 176.938C510.123 176.938 508.212 181.315 506.87 181.864C505.529 182.413 499.017 183.142 497.675 181.683C496.333 180.224 497.296 173.652 497.296 173.652C497.296 173.652 495.378 173.291 495.378 171.644C495.378 169.997 498.44 167.636 498.44 167.636C498.44 167.636 497.651 166.538 498.251 163.981C498.698 162.299 499.55 160.739 500.737 159.424Z" fill="#C2C2C2" stroke="#263238" stroke-miterlimit="10"/>
<path d="M500.477 168.448C500.477 169.027 500.722 169.493 501.021 169.493C501.321 169.493 501.566 169.027 501.566 168.448C501.566 167.869 501.321 167.41 501.021 167.41C500.722 167.41 500.477 167.839 500.477 168.448Z" fill="#263238"/>
<path d="M502.9 166.553C502.9 166.553 502.616 165.004 500.137 165.282" stroke="#263238" stroke-linecap="round" stroke-linejoin="round"/>
<path d="M499.648 175.968C500.569 175.885 501.419 175.461 502.016 174.787" stroke="#263238" stroke-linecap="round" stroke-linejoin="round"/>
<path d="M527.125 338.49C527.125 338.49 525.128 342.777 523.123 344.205C521.118 345.634 517.376 345.401 516.879 347.777C516.382 350.154 518.379 350.402 520.123 350.402C521.868 350.402 527.377 350.402 528.38 350.161C531.53 349.114 534.483 347.59 537.126 345.649C540.125 343.273 540.875 343.506 538.625 338.979C536.376 334.452 527.125 338.49 527.125 338.49Z" fill="#F2562D" stroke="#263238" stroke-miterlimit="10"/>
<path d="M516.808 348.236C519.231 348.65 523.991 349.206 528.167 348.236C532.342 347.266 537.291 343.687 539.786 341.724C540.315 343.574 539.328 343.912 537.126 345.664C534.483 347.605 531.53 349.129 528.38 350.176C527.377 350.417 521.876 350.417 520.123 350.417C518.497 350.432 516.65 350.191 516.808 348.236Z" fill="white" stroke="#263238" stroke-miterlimit="10"/>
<path d="M517.574 257.425C517.574 257.425 520.644 287.587 523.391 294.498C526.138 301.409 530.787 304.507 531.79 309.749C532.792 314.99 538.625 338.964 538.625 338.964C538.625 338.964 536.123 341.348 534.379 341.107C532.634 340.867 527.377 341.589 525.878 338.964C524.378 336.34 521.931 328.82 521.694 328.105C521.457 327.391 510.943 308.079 508.449 300.462C505.955 292.844 497.888 261.358 498.14 257.537" fill="#263238"/>
<path d="M517.574 257.425C517.574 257.425 520.644 287.587 523.391 294.498C526.138 301.409 530.787 304.507 531.79 309.749C532.792 314.99 538.625 338.964 538.625 338.964C538.625 338.964 536.123 341.348 534.379 341.107C532.634 340.867 527.377 341.589 525.878 338.964C524.378 336.34 521.931 328.82 521.694 328.105C521.457 327.391 510.943 308.079 508.449 300.462C505.955 292.844 497.888 261.358 498.14 257.537" stroke="#263238" stroke-miterlimit="10"/>
<path d="M517.882 239.993C517.882 239.993 522.468 247.183 521.323 254.845C520.179 262.508 511.172 266.343 504.85 265.246C498.527 264.148 494.225 259.982 494.225 252.657C494.142 248.73 494.596 244.809 495.575 240.994C502.942 242.847 510.73 242.498 517.882 239.993Z" fill="#263238" stroke="#263238" stroke-miterlimit="10"/>
<path d="M517.077 185.782C517.077 185.782 522.823 196.001 523.21 204.206C523.596 212.41 520.502 244.994 520.502 244.994C520.502 244.994 516.753 246.746 508.52 247.115C503.64 247.352 498.765 246.543 494.257 244.746C494.257 244.746 494.667 224.284 494.667 214.425C494.667 204.567 502.711 189.978 502.711 189.978L517.077 185.782Z" fill="white" stroke="#263238" stroke-miterlimit="10"/>
<path d="M521.513 208.5C521.513 208.5 521.007 214.283 513.682 215.004" stroke="#263238" stroke-linecap="round" stroke-linejoin="round"/>
<path d="M519.492 216.208C516.83 217.703 513.684 218.217 510.651 217.651" stroke="#263238" stroke-linecap="round" stroke-linejoin="round"/>
<path d="M516.934 238.963C516.934 238.963 509.602 232.947 505.813 227.405" stroke="#263238" stroke-linecap="round" stroke-linejoin="round"/>
<path d="M506.571 233.18C506.571 233.18 512.885 239.444 515.166 240.166" stroke="#263238" stroke-linecap="round" stroke-linejoin="round"/>
<path d="M518.229 186.143L503.539 193.557L502.142 187.421L517.274 181.397L518.229 186.143Z" fill="white" stroke="#263238" stroke-miterlimit="10"/>
<path d="M496.578 341.649C496.578 341.649 491.573 344.506 488.826 345.694C486.079 346.883 485.827 346.65 485.827 348.319C485.827 349.988 485.574 350.222 490.073 350.222C494.573 350.222 507.573 350.462 508.82 349.47C510.067 348.477 498.322 340.934 496.578 341.649Z" fill="#F2562D" stroke="#263238" stroke-miterlimit="10"/>
<path d="M490.073 350.221C485.866 350.221 485.811 350.011 485.827 348.62C498.638 348.988 504.881 348.529 507.928 347.988C508.717 348.74 509.12 349.289 508.828 349.492C507.541 350.432 494.573 350.221 490.073 350.221Z" fill="white" stroke="#263238" stroke-miterlimit="10"/>
<path d="M519.074 257.936C519.074 257.936 517.321 274.367 515.072 281.519C512.822 288.67 512.822 291.753 513.572 297.95C514.322 304.146 516.824 309.854 515.072 315.569C513.319 321.285 509.823 345.732 509.823 346.687C509.823 347.642 510.075 349.071 508.82 349.545C507.565 350.018 496.822 343.115 496.578 341.686C496.333 340.257 498.322 335.971 498.322 332.158C498.322 328.346 497.075 306.041 497.075 295.31C497.075 284.579 491.849 261.613 495.851 252.085" fill="#263238"/>
<path d="M519.074 257.936C519.074 257.936 517.321 274.367 515.072 281.519C512.822 288.67 512.822 291.753 513.572 297.95C514.322 304.146 516.824 309.854 515.072 315.569C513.319 321.284 509.823 345.732 509.823 346.687C509.823 347.642 510.075 349.071 508.82 349.545C507.565 350.018 496.822 343.115 496.578 341.686C496.333 340.257 498.322 335.971 498.322 332.158C498.322 328.346 497.075 306.041 497.075 295.31C497.075 284.579 491.849 261.613 495.851 252.085" stroke="#263238" stroke-miterlimit="10"/>
<path d="M517.653 268.269C517.653 268.269 516.469 276.262 515.072 281.481C513.675 286.7 512.254 289.129 513.959 295.626C515.664 302.124 516.382 310.666 515.537 313.915" stroke="white" stroke-linecap="round" stroke-linejoin="round"/>
<path d="M510.004 194.242C510.004 194.242 503.184 199.739 502.655 201.987C502.127 204.236 495.551 224.495 495.551 224.495L477.468 252.74L482.204 255.996L503.461 234.241L518.947 207.244" fill="white"/>
<path d="M510.004 194.242C510.004 194.242 503.184 199.739 502.655 201.987C502.127 204.236 495.551 224.495 495.551 224.495L477.468 252.74L482.204 255.996L503.461 234.241L518.947 207.244" stroke="#263238" stroke-miterlimit="10"/>
<path d="M477.468 252.74L473.521 255.282C472.982 256.343 472.295 257.329 471.477 258.214C470.553 258.966 470.04 258.891 470.348 259.478C470.656 260.064 472.195 259.966 472.195 259.966C472.195 259.966 470.964 261.14 471.406 261.922C471.848 262.704 472.329 262.899 472.74 262.674C473.15 262.448 473.861 262.185 473.861 262.185C474.96 262.528 476.096 262.757 477.247 262.869C478.368 262.869 479.804 261.365 479.804 261.365L482.235 255.928L477.468 252.74Z" fill="#C2C2C2" stroke="#263238" stroke-miterlimit="10"/>
<path d="M472.179 259.967L473.711 257.53" stroke="#263238" stroke-linecap="round" stroke-linejoin="round"/>
</svg>
